<svg viewBox="0 0 500 500" width="100%" height="100%" xmlns="http://www.w3.org/2000/svg">
  <rect width="500" height="500" rx="72" fill="#FF9800"/>
  <!-- Digit Iconic Infinity / Connected Digits Emblem -->
  <g transform="translate(100, 70)">
    <path d="M90 120 C60 120 40 145 40 175 C40 205 60 230 90 230 C130 230 170 175 170 175 C170 175 210 120 250 120 C280 120 300 145 300 175 C300 205 280 230 250 230 C210 230 170 175 170 175 C170 175 130 120 90 120 Z" fill="none" stroke="#212121" stroke-width="32" stroke-linecap="round"/>
    <circle cx="90" cy="175" r="18" fill="#FFFFFF"/>
    <circle cx="250" cy="175" r="18" fill="#FFFFFF"/>
  </g>
  <text x="250" y="380" font-family="-apple-system, BlinkMacSystemFont, 'Segoe UI', Roboto, sans-serif" font-size="64" font-weight="900" fill="#212121" text-anchor="middle" letter-spacing="-1">go<tspan fill="#FFFFFF">digit</tspan></text>
  <text x="250" y="430" font-family="-apple-system, BlinkMacSystemFont, 'Segoe UI', Roboto, sans-serif" font-size="22" font-weight="700" fill="#212121" text-anchor="middle" letter-spacing="3">GENERAL INSURANCE</text>
</svg>
